<?xml version="1.0" encoding="utf-8"?>
<!-- Generator: Adobe Illustrator 19.1.0, SVG Export Plug-In . SVG Version: 6.00 Build 0)  -->
<svg version="1.1" id="Layer_1" xmlns="http://www.w3.org/2000/svg" xmlns:xlink="http://www.w3.org/1999/xlink" x="0px" y="0px"
	 viewBox="0 0 150 70" style="enable-background:new 0 0 150 70;" xml:space="preserve">
<style type="text/css">
	.st0{fill:#222222;}
	.st1{fill:#6DBE45;}
	.st2{font-family:'Ubuntu-Medium';}
	.st3{font-size:9.1271px;}
</style>
<path class="st0" d="M135.9,53.9c-1,2.2-2.6,4-4.8,5.4c-1.6,1-3.2,1.6-4.8,1.8c-1.6,0.2-3.4,0.3-5.2,0.3h-12.7v-39h7.8v10.5h6.9
	c4.5,0,7.9,1.2,10.4,3.5c2.5,2.4,3.7,5.8,3.7,10.3C137.4,49.4,136.9,51.7,135.9,53.9z M127.8,41.1c-1.2-1.4-3.1-2.1-5.7-2.1h-5.8
	v16.3h5.8c2.5,0,4.4-0.8,5.6-2.4c1.3-1.6,1.9-3.6,1.9-5.9C129.6,44.5,129,42.5,127.8,41.1z"/>
<path class="st0" d="M105,34.4L105,34.4v-1.5H94c-1.5,0-3,0.1-4.5,0.4c-1.5,0.2-2.9,0.8-4.1,1.7c-1,0.7-1.8,1.4-2.5,2.4
	c-0.7,0.9-1.3,1.9-1.8,2.9c-0.5,1-0.8,2.1-1,3.3c-0.2,1.1-0.3,2.3-0.3,3.4c0,2.3,0.4,4.5,1.2,6.6c0.8,2.1,2.1,3.8,4,5.3
	c1.5,1.1,3,1.9,4.5,2.2c1.5,0.3,3.2,0.5,5.1,0.5H105v-6.1h-9.6c-1,0-1.9-0.1-2.7-0.2c-0.8-0.1-1.5-0.4-2.1-0.7
	c-0.6-0.4-1.1-0.9-1.4-1.6c-0.3-0.7-0.6-1.6-0.6-2.7h16.5v-0.6l0,0L105,34.4L105,34.4z M90.1,40c0.9-0.7,2.4-1,4.4-1h2.6v5.1h-8.7
	C88.6,42.1,89.1,40.7,90.1,40z"/>
<polygon class="st1" points="28.7,31.6 23.2,22.4 13,22.4 23.4,38.4 "/>
<path class="st0" d="M25.6,42.4L12.7,61.7l9.9-0.1l8.3-13.5l8.7,13.3l9.8-0.1L36,41.8c0,0,17.6-25.3,44.2-31.4
	c0.1,0,0.2-0.1,0.3-0.1c-0.1,0-0.2,0-0.3,0C53.5,12.3,32.4,31.5,25.6,42.4z"/>
<path class="st1" d="M55.6,36.9c-2.2,0-4-1.8-4-4c0-2.2,1.8-4,4-4s4,1.8,4,4C59.6,35.2,57.8,36.9,55.6,36.9L55.6,36.9z"/>
<path class="st0" d="M55.6,39.5c-1.3,0-2.6-0.4-3.6-1.1v23h7.8V38C58.7,39,57.2,39.5,55.6,39.5z"/>
<path class="st0" d="M77.4,55.4c-2.3,0-2,0-2.6-0.1s-1.2-0.2-1.8-0.4c-0.5-0.2-1-0.6-1.3-1c-0.4-0.5-0.6-1.3-0.6-2.2
	c0-0.9,0-1.7,0-2.3V39.1h6c1.4-4.7,6-5.9,6.1-6.1H71.1c0,0,0.1-11.7,0-11.7c-5.7,0.7-7.8,3.3-7.8,3.3v26.1c0,1,0,2,0.1,2.9
	c0.1,1,0.3,1.9,0.6,2.8c0.7,2,1.9,3.3,3.4,4c1.6,0.7,3.3,1,5.3,1h9.3v-0.2C81.4,61.1,78.2,58,77.4,55.4z"/>
<text transform="matrix(1 0 0 1 130.1986 16.4779)" class="st0 st2 st3">®</text>
</svg>
