<svg height="512pt" viewBox="0 0 512 512" width="512pt" xmlns="http://www.w3.org/2000/svg"><path d="m176 266c5.519531 0 10-4.480469 10-10s-4.480469-10-10-10-10 4.480469-10 10 4.480469 10 10 10zm0 0"/><path d="m30 411.988281h174.992188c-4.644532 22.796875-24.847657 40.011719-48.992188 40.011719-5.523438 0-10 4.476562-10 10v40c0 5.523438 4.476562 10 10 10h200c5.523438 0 10-4.476562 10-10v-40c0-5.523438-4.476562-10-10-10-24.144531 0-44.347656-17.203125-48.992188-40h174.992188c16.542969 0 30-13.457031 30-30v-306c0-16.542969-13.457031-30-30-30h-76v-36c0-5.523438-4.476562-10-10-10h-280c-5.523438 0-10 4.476562-10 10v36h-76c-16.542969 0-30 13.457031-30 30v306c0 16.542969 13.457031 29.988281 30 29.988281zm136 80.011719v-20h180v20zm141.078125-40h-102.15625c10.738281-10.507812 18.113281-24.433594 20.351563-40h61.453124c2.238282 15.566406 9.613282 29.492188 20.351563 40zm174.921875-60h-452c-5.515625 0-10-4.484375-10-10v-50h472v50c0 5.515625-4.484375 10-10 10zm0-326c5.515625 0 10 4.484375 10 10v236h-86v-246zm-356-46h260v292h-260zm-96 46h76v246h-86v-236c0-5.515625 4.484375-10 10-10zm0 0"/><path d="m186 176h40v40c0 5.523438 4.476562 10 10 10h40c5.523438 0 10-4.476562 10-10v-40h40c5.523438 0 10-4.476562 10-10v-40c0-5.523438-4.476562-10-10-10h-40v-40c0-5.523438-4.476562-10-10-10h-40c-5.523438 0-10 4.476562-10 10v40h-40c-5.523438 0-10 4.476562-10 10v40c0 5.523438 4.476562 10 10 10zm10-40h40c5.523438 0 10-4.476562 10-10v-40h20v40c0 5.523438 4.476562 10 10 10h40v20h-40c-5.523438 0-10 4.476562-10 10v40h-20v-40c0-5.523438-4.476562-10-10-10h-40zm0 0"/><path d="m216 246c-5.523438 0-10 4.476562-10 10s4.476562 10 10 10h120c5.523438 0 10-4.476562 10-10s-4.476562-10-10-10zm0 0"/><path d="m276 352h-40c-5.523438 0-10 4.476562-10 10s4.476562 10 10 10h40c5.523438 0 10-4.476562 10-10s-4.476562-10-10-10zm0 0"/></svg>